<?xml version="1.0" standalone="no"?>
<!DOCTYPE svg PUBLIC "-//W3C//DTD SVG 20010904//EN"
 "http://www.w3.org/TR/2001/REC-SVG-20010904/DTD/svg10.dtd">
<svg version="1.0" xmlns="http://www.w3.org/2000/svg"
 width="2048.000000pt" height="2048.000000pt" viewBox="0 0 2048.000000 2048.000000"
 preserveAspectRatio="xMidYMid meet">

<g transform="translate(0.000000,2048.000000) scale(0.100000,-0.100000)"
fill="#000000" stroke="none">
<path d="M9145 15284 c-182 -42 -316 -86 -440 -142 -107 -48 -260 -138 -287
-169 -9 -10 -47 -141 -87 -298 -140 -558 -281 -1125 -281 -1133 0 -4 129 -20
288 -35 158 -15 427 -40 597 -57 171 -16 578 -55 905 -85 327 -31 710 -67 850
-80 712 -70 1715 -164 1718 -161 5 5 -212 928 -404 1724 -56 231 -69 272 -83
268 -9 -3 -199 -39 -422 -80 l-406 -75 -524 105 c-288 57 -690 136 -894 174
-203 39 -374 72 -380 74 -5 2 -73 -12 -150 -30z"/>
<path d="M7405 12870 c-192 -16 -406 -33 -475 -39 -129 -11 -1139 -91 -1168
-92 -10 0 57 -20 148 -45 318 -86 870 -235 1070 -289 69 -18 220 -59 335 -90
116 -31 277 -74 359 -95 81 -21 151 -41 154 -44 5 -6 51 -772 92 -1546 5 -102
13 -221 16 -265 l6 -80 176 -155 c97 -85 311 -274 477 -420 165 -145 413 -363
550 -484 259 -228 596 -526 819 -726 71 -63 184 -162 250 -219 67 -58 162
-142 211 -186 l91 -82 -106 -249 c-59 -137 -121 -282 -138 -321 l-31 -73 137
-121 c75 -67 194 -172 263 -233 70 -61 132 -122 138 -135 7 -13 50 -130 97
-260 295 -819 384 -1066 469 -1311 52 -151 104 -297 115 -324 31 -76 24 -74
-36 10 -31 44 -93 126 -138 184 -45 58 -172 222 -281 365 -109 143 -273 357
-364 475 -91 118 -276 359 -411 535 -135 176 -374 487 -531 690 -157 204 -379
492 -493 640 -238 310 -437 567 -616 798 -69 89 -218 281 -331 427 -574 739
-680 875 -687 878 -5 1 -64 -102 -132 -230 -315 -590 -446 -835 -455 -849 -5
-9 -252 -177 -548 -374 -296 -197 -534 -362 -530 -366 5 -5 33 -24 63 -42 97
-59 925 -573 1240 -770 536 -334 597 -372 1540 -957 449 -278 1144 -711 1415
-880 121 -76 483 -301 805 -500 322 -200 597 -371 612 -382 14 -10 30 -18 36
-18 5 0 29 46 52 103 23 56 93 224 155 372 167 400 289 695 466 1129 154 376
158 390 142 409 -31 35 -1131 1009 -1424 1262 l-117 100 327 8 c179 4 436 10
571 15 l245 7 7 45 c3 25 30 189 58 365 28 176 62 385 75 465 41 259 329 2043
340 2103 2 15 2 27 -1 27 -2 0 -44 -33 -93 -72 -205 -169 -273 -223 -278 -221
-2 1 -63 84 -134 184 -72 100 -139 193 -150 207 -11 14 -16 29 -12 32 4 4 103
28 218 54 116 26 276 63 356 82 l147 35 11 60 12 61 222 -7 c364 -10 1478 -25
1832 -25 l330 1 -150 58 c-82 32 -222 86 -310 120 -88 35 -245 96 -350 136
-427 166 -1395 539 -1470 567 -70 25 -125 34 -425 68 -190 22 -358 42 -375 45
-16 2 -336 41 -710 85 -374 44 -754 89 -845 100 -91 11 -372 45 -625 75 -615
73 -1149 137 -1549 185 -181 22 -348 39 -370 39 -23 -1 -198 -14 -391 -29z
m2930 -1354 c132 -43 420 -138 640 -210 l400 -132 -200 -119 c-110 -65 -262
-156 -337 -202 l-136 -84 -358 205 c-196 113 -362 207 -368 209 -8 3 -8 16 1
48 6 24 30 117 54 207 25 97 46 162 53 160 6 -2 119 -39 251 -82z"/>
</g>
</svg> 